<?xml version="1.0" encoding="utf-8"?>
<!-- Generator: Adobe Illustrator 22.1.0, SVG Export Plug-In . SVG Version: 6.00 Build 0)  -->
<svg version="1.1" id="Layer_1" xmlns="http://www.w3.org/2000/svg" xmlns:xlink="http://www.w3.org/1999/xlink" x="0px" y="0px"
	 viewBox="0 0 462.3 469.4" style="enable-background:new 0 0 462.3 469.4;" xml:space="preserve">
<style type="text/css">
	.st0{fill:#2AD400;}
	.st1{fill:#12E5FF;}
	.st2{fill:#EEF700;}
	.st3{fill:#E2FFFD;}
</style>
<g id="XMLID_1_">
	<g>
		<path class="st0" d="M462.3,194c-10.5,15.5-27,29.7-47.8,40.8c-17.6-9.4-38.1-16.5-60.6-20.5c-1.1-0.2-2.2-0.4-3.4-0.6
			c1-0.6,2-1.1,3-1.7c19.7-11.4,36.6-25.1,49.9-40C426.7,175.3,447.1,182.9,462.3,194z"/>
		<path class="st0" d="M414.5,234.7c20.8,11.1,37.3,25.2,47.8,40.8c-15.2,11-35.6,18.6-58.9,22c-13.3-14.8-30.2-28.6-49.9-40
			c-1-0.6-2-1.1-3-1.7c1.1-0.2,2.2-0.4,3.4-0.6C376.4,251.2,396.9,244.1,414.5,234.7z"/>
		<path class="st0" d="M434.4,117.3c-4.5,18.2-15.3,37.2-31,54.7c-19.7-2.8-41.5-2.5-63.9,1.5c-1.1,0.2-2.2,0.4-3.4,0.6
			c0.8-0.9,1.5-1.7,2.2-2.6c14.7-17.5,25.8-36.2,33.2-54.6C394.6,112,416.4,112.2,434.4,117.3z"/>
		<path class="st0" d="M403.4,297.4c15.7,17.5,26.4,36.5,31,54.6c-18,5.2-39.8,5.4-62.8,0.5c-7.4-18.5-18.6-37.2-33.2-54.6
			c-0.7-0.9-1.5-1.7-2.2-2.6c1.1,0.2,2.2,0.4,3.4,0.6C362,299.9,383.8,300.2,403.4,297.4z"/>
		<path class="st0" d="M382,54.9c2,18.6-1.6,40.1-10.4,62c-19.5,4.1-39.8,11.8-59.6,23.2c-1,0.6-2,1.2-2.9,1.7
			c0.4-1.1,0.8-2.1,1.2-3.2c7.8-21.4,11.9-42.8,12.5-62.7C342.8,63.5,363.3,56.2,382,54.9z"/>
		<path class="st0" d="M371.6,352.6c8.8,21.8,12.4,43.3,10.4,62c-18.7-1.3-39.2-8.6-59.2-21c-0.7-19.9-4.7-41.3-12.5-62.7
			c-0.4-1.1-0.8-2.1-1.2-3.2c1,0.6,2,1.2,3,1.7C331.8,340.7,352.1,348.5,371.6,352.6z"/>
		<path class="st1" d="M339.5,173.5c22.5-4,44.2-4.3,63.9-1.5c-13.3,14.8-30.1,28.6-49.9,40c-1,0.6-2,1.1-3,1.7
			c-20.4-3.3-40.2-3.5-58.3-1.2c15.4-9.8,30.4-22.8,43.9-38.4C337.3,173.9,338.4,173.7,339.5,173.5z"/>
		<path class="st1" d="M403.4,297.4c-19.7,2.8-41.5,2.5-63.9-1.5c-1.1-0.2-2.2-0.4-3.4-0.6c-13.5-15.6-28.5-28.5-43.9-38.4
			c18.1,2.3,37.9,2.1,58.3-1.2c1,0.6,2,1.1,3,1.7C373.3,268.9,390.1,282.6,403.4,297.4z"/>
		<path class="st1" d="M353.9,214.2c22.5,4,43,11.1,60.6,20.5c-17.6,9.4-38.1,16.5-60.6,20.5c-1.1,0.2-2.2,0.4-3.4,0.6
			c-18.1-10.1-36.6-17.1-54.4-21.1c17.8-4,36.3-11,54.3-21.1C351.7,213.8,352.8,214,353.9,214.2z"/>
		<path class="st1" d="M371.6,116.9c-7.4,18.5-18.6,37.2-33.2,54.6c-0.7,0.9-1.5,1.7-2.2,2.6c-20.3,3.9-39,10.4-55.2,18.8
			c11.1-14.5,20.7-31.8,28.1-51.1c1-0.6,1.9-1.2,2.9-1.7C331.8,128.7,352.1,121,371.6,116.9z"/>
		<path class="st1" d="M338.4,297.9c14.6,17.5,25.8,36.2,33.2,54.6c-19.5-4.1-39.8-11.8-59.6-23.2c-1-0.6-2-1.1-3-1.7
			c-7.4-19.3-17-36.5-28.1-51c16.2,8.4,34.9,14.9,55.1,18.8C336.9,296.2,337.6,297.1,338.4,297.9z"/>
		<path class="st0" d="M311.4,14.1c8.2,16.8,12.2,38.2,11.4,61.8c-16.9,10.5-33.4,24.7-48,42.2c-0.7,0.9-1.5,1.8-2.2,2.6
			c0-1.1,0-2.3,0-3.4c0-22.8-3.5-44.3-9.7-63.2C277.5,35.6,294.3,21.8,311.4,14.1z"/>
		<path class="st0" d="M322.8,393.5c0.8,23.5-3.2,44.9-11.4,61.8c-17.1-7.6-33.9-21.5-48.4-40c6.2-18.9,9.7-40.4,9.7-63.2
			c0-1.1,0-2.3,0-3.4c0.7,0.9,1.4,1.8,2.2,2.6C289.5,368.8,305.9,383,322.8,393.5z"/>
		<path class="st2" d="M292.3,212.5c18.1-2.3,37.9-2.1,58.3,1.2c-18,10.1-36.5,17.1-54.3,21.1c-15.6-3.5-30.7-4.7-44.5-3.6
			C265,227.4,278.8,221.1,292.3,212.5z"/>
		<path class="st2" d="M350.6,255.8c-20.4,3.3-40.2,3.5-58.3,1.2c-13.5-8.7-27.3-15-40.7-18.6c13.8,1.1,28.9-0.1,44.6-3.6
			C314,238.7,332.5,245.7,350.6,255.8z"/>
		<path class="st1" d="M322.8,75.9c-0.7,19.9-4.7,41.3-12.5,62.7c-0.4,1.1-0.8,2.1-1.2,3.2c-17.7,10.6-33,23.1-45.4,36.5
			c5.4-17.4,8.6-36.9,8.9-57.6c0.7-0.9,1.4-1.8,2.2-2.6C289.5,100.7,305.9,86.4,322.8,75.9z"/>
		<path class="st1" d="M310.3,330.8c7.8,21.4,11.9,42.8,12.5,62.7c-16.9-10.5-33.4-24.8-48-42.2c-0.7-0.9-1.5-1.8-2.2-2.6
			c-0.3-20.6-3.5-40.1-8.9-57.6c12.4,13.4,27.7,25.9,45.4,36.5C309.5,328.6,309.9,329.7,310.3,330.8z"/>
		<path class="st2" d="M336.2,174.1c-13.5,15.6-28.5,28.5-43.9,38.4c-15.9,2-30.5,6.1-43.1,11.8c11.3-8,22.1-18.7,31.8-31.4
			C297.2,184.5,315.9,178,336.2,174.1z"/>
		<path class="st2" d="M292.3,257c15.4,9.9,30.3,22.8,43.9,38.4c-20.3-3.9-39-10.4-55.1-18.8c-9.7-12.8-20.6-23.4-31.9-31.4
			C261.8,250.9,276.4,254.9,292.3,257z"/>
		<path class="st3" d="M292.3,212.5c-13.5,8.7-27.3,14.9-40.6,18.6c0,0,0,0,0,0c-7.2,0.6-14.1,1.8-20.5,3.6
			c6.1-2.7,12.1-6.2,18-10.4C261.8,218.6,276.4,214.5,292.3,212.5z"/>
		<path class="st3" d="M251.6,238.3c13.3,3.7,27.1,10,40.7,18.6c-15.9-2-30.6-6.1-43.2-11.9c-5.9-4.2-11.9-7.7-18-10.4
			C237.6,236.5,244.4,237.8,251.6,238.3z"/>
		<path class="st2" d="M309.1,141.8c-7.4,19.3-17,36.6-28.1,51.1c-14.3,7.4-26.6,16.2-36.5,25.9c7.9-11.4,14.4-25.1,19.2-40.4
			C276.1,164.9,291.4,152.4,309.1,141.8z"/>
		<path class="st2" d="M281,276.5c11.1,14.5,20.7,31.8,28.1,51c-17.7-10.6-33-23.1-45.4-36.5c-4.8-15.3-11.3-29-19.2-40.4
			C254.4,260.4,266.8,269.2,281,276.5z"/>
		<path class="st3" d="M281,192.9c-9.7,12.8-20.5,23.4-31.8,31.4c-6.6,3-12.7,6.5-18,10.4c4.8-4.6,9.3-10,13.4-15.9
			C254.4,209.1,266.7,200.2,281,192.9z"/>
		<path class="st3" d="M249.1,245.1c11.3,8,22.1,18.7,31.9,31.4c-14.2-7.4-26.6-16.2-36.5-25.9c-4.1-6-8.6-11.3-13.4-16
			C236.5,238.6,242.6,242.1,249.1,245.1z"/>
		<path class="st1" d="M272.6,117.3c0,1.2,0,2.3,0,3.4c-13,16-23.1,33-30.2,49.8c-0.9-18.2-4.5-37.6-11.3-57.1
			c0.4-1.1,0.8-2.2,1.1-3.2c7.8-21.4,18.4-40.4,30.7-56.1C269.2,73.1,272.6,94.6,272.6,117.3z"/>
		<path class="st1" d="M272.6,348.6c0,1.1,0,2.3,0,3.4c0,22.8-3.5,44.3-9.7,63.2c-12.3-15.7-22.9-34.7-30.7-56.1
			c-0.4-1.1-0.8-2.1-1.1-3.2c6.8-19.5,10.5-38.9,11.3-57.1C249.5,315.6,259.6,332.6,272.6,348.6z"/>
		<path class="st3" d="M296.2,234.7c-15.6,3.5-30.8,4.7-44.6,3.6c-7-1.9-13.9-3.2-20.5-3.6c6.7-0.5,13.5-1.7,20.5-3.6c0,0,0,0,0,0
			C265.5,230,280.6,231.2,296.2,234.7z"/>
		<path class="st2" d="M272.6,120.8c-0.3,20.6-3.5,40.1-8.9,57.6c-10.9,11.8-19.5,24.3-25.4,36.8c3.5-13.4,4.9-28.5,4.2-44.5
			C249.5,153.8,259.6,136.8,272.6,120.8z"/>
		<path class="st2" d="M263.7,291.1c5.4,17.4,8.6,36.9,8.9,57.6c-13-16-23.1-33-30.2-49.8c0,0,0,0,0,0c0.7-16-0.7-31.1-4.2-44.5
			C244.2,266.8,252.8,279.3,263.7,291.1z"/>
		<path class="st0" d="M231.1,0c13.5,13,24.5,31.8,31.8,54.2c-12.3,15.7-22.9,34.7-30.7,56.1c-0.4,1.1-0.8,2.2-1.1,3.2
			c-0.4-1.1-0.8-2.2-1.1-3.2c-7.8-21.4-18.4-40.4-30.7-56.1C206.6,31.8,217.7,13,231.1,0z"/>
		<path class="st3" d="M263.7,178.3c-4.8,15.3-11.3,29-19.2,40.4c-5.2,5.1-9.7,10.4-13.4,15.9c2.9-6,5.3-12.6,7.1-19.6
			C244.2,202.6,252.8,190.1,263.7,178.3z"/>
		<path class="st3" d="M244.6,250.7c7.8,11.4,14.4,25.1,19.2,40.4c-10.9-11.8-19.5-24.3-25.4-36.8c-1.8-7-4.2-13.6-7.1-19.6
			C234.9,240.2,239.4,245.6,244.6,250.7z"/>
		<path class="st0" d="M263,415.3c-7.3,22.4-18.4,41.1-31.8,54.2c-13.5-13-24.5-31.8-31.8-54.2c12.3-15.7,22.9-34.7,30.7-56.1
			c0.4-1.1,0.8-2.1,1.1-3.2c0.4,1.1,0.8,2.1,1.1,3.2C240.1,380.6,250.7,399.6,263,415.3z"/>
		<path class="st3" d="M238.3,254.3c3.5,13.4,4.9,28.5,4.2,44.5c-6.2-14.8-10-29.5-11.3-43.3c0.7-7.2,0.7-14.2,0-20.8
			C232.8,241.2,235.1,247.7,238.3,254.3z"/>
		<path class="st3" d="M242.5,170.6c0.7,16-0.7,31.1-4.2,44.5c-3.1,6.6-5.5,13.1-7.1,19.6c0.7-6.6,0.7-13.6,0-20.8
			C232.5,200.1,236.3,185.4,242.5,170.6z"/>
		<path class="st2" d="M242.5,298.8C242.5,298.8,242.5,298.8,242.5,298.8c-0.9,18.2-4.5,37.7-11.3,57.2
			c-6.8-19.5-10.5-38.9-11.3-57.1c0,0,0,0,0,0c6.2-14.8,10-29.5,11.3-43.3C232.5,269.3,236.3,284,242.5,298.8z"/>
		<path class="st0" d="M231.1,234.7c5.4-3.9,11.4-7.4,18-10.4C243.3,228.5,237.2,232,231.1,234.7z"/>
		<path class="st0" d="M249.1,245.1c-6.6-3-12.6-6.5-18-10.4C237.2,237.4,243.2,240.9,249.1,245.1z"/>
		<path class="st0" d="M231.1,234.7c6.4-1.8,13.3-3,20.5-3.6C244.7,233,237.8,234.2,231.1,234.7z"/>
		<path class="st0" d="M251.6,238.3c-7.2-0.6-14.1-1.8-20.5-3.6C237.8,235.2,244.6,236.4,251.6,238.3z"/>
		<path class="st0" d="M244.5,218.8c-4.1,6-8.6,11.3-13.4,15.9C234.9,229.2,239.4,223.9,244.5,218.8z"/>
		<path class="st0" d="M231.1,234.7c4.8,4.6,9.3,10,13.4,16C239.4,245.6,234.9,240.2,231.1,234.7z"/>
		<path class="st0" d="M238.3,215.1c-1.8,7-4.2,13.6-7.1,19.6C232.8,228.2,235.1,221.7,238.3,215.1z"/>
		<path class="st0" d="M231.1,234.7c2.9,6,5.3,12.6,7.1,19.6C235.1,247.7,232.8,241.2,231.1,234.7z"/>
		<path class="st2" d="M231.1,113.5c6.8,19.5,10.5,38.9,11.3,57.1c-6.2,14.8-10,29.5-11.3,43.3c-1.3-13.8-5.1-28.5-11.3-43.3
			C220.7,152.4,224.4,133,231.1,113.5z"/>
		<path class="st0" d="M231.1,213.9c0.7,7.2,0.7,14.2,0,20.8C230.5,228.1,230.5,221.1,231.1,213.9z"/>
		<path class="st0" d="M231.1,234.7c0.7,6.6,0.7,13.6,0,20.8C230.5,248.3,230.5,241.3,231.1,234.7z"/>
		<path class="st1" d="M230,110.2c0.4,1.1,0.8,2.2,1.1,3.2c-6.8,19.5-10.5,38.9-11.3,57.1c-7-16.8-17.1-33.8-30.2-49.8
			c0-1.1,0-2.3,0-3.4c0-22.8,3.5-44.3,9.7-63.2C211.6,69.8,222.2,88.8,230,110.2z"/>
		<path class="st1" d="M231.1,356c-0.4,1.1-0.8,2.1-1.1,3.2c-7.8,21.4-18.4,40.4-30.7,56.1c-6.2-18.9-9.7-40.4-9.7-63.2
			c0-1.1,0-2.3,0-3.4c13-16,23.1-33,30.2-49.8C220.7,317,224.4,336.5,231.1,356z"/>
		<path class="st3" d="M231.1,213.9c-0.7,7.2-0.7,14.2,0,20.8c-1.6-6.5-4-13-7.1-19.6c-3.5-13.4-4.9-28.5-4.2-44.5
			C226,185.4,229.8,200.1,231.1,213.9z"/>
		<path class="st3" d="M231.1,234.7c-0.7,6.6-0.7,13.6,0,20.8c-1.3,13.8-5.1,28.5-11.3,43.3c-0.7-16,0.7-31.1,4.2-44.5
			C227.1,247.7,229.5,241.2,231.1,234.7z"/>
		<path class="st0" d="M224,215.1c3.1,6.6,5.5,13.1,7.1,19.6C228.2,228.7,225.8,222.2,224,215.1z"/>
		<path class="st0" d="M231.1,234.7c-1.6,6.5-4,13-7.1,19.6C225.8,247.3,228.2,240.7,231.1,234.7z"/>
		<path class="st3" d="M224,215.1c1.8,7,4.2,13.6,7.1,19.6c-3.7-5.5-8.2-10.9-13.4-15.9c-7.9-11.4-14.4-25.1-19.2-40.4
			C209.5,190.1,218.1,202.6,224,215.1z"/>
		<path class="st3" d="M231.1,234.7c-2.9,6-5.3,12.6-7.1,19.6c-5.9,12.5-14.6,25-25.4,36.8c4.8-15.3,11.3-29,19.1-40.4
			C222.9,245.6,227.4,240.2,231.1,234.7z"/>
		<path class="st2" d="M219.8,298.8C219.8,298.8,219.8,298.8,219.8,298.8c-7,16.8-17.1,33.8-30.2,49.8c0.3-20.6,3.5-40.1,8.9-57.6
			c10.9-11.8,19.5-24.3,25.4-36.8C220.5,267.7,219.1,282.8,219.8,298.8z"/>
		<path class="st2" d="M219.8,170.6c-0.7,16,0.7,31.1,4.2,44.5c-5.9-12.5-14.6-25-25.4-36.8c-5.4-17.4-8.6-36.9-8.9-57.6
			C202.7,136.8,212.8,153.8,219.8,170.6z"/>
		<path class="st0" d="M217.8,218.8c5.2,5.1,9.7,10.4,13.4,15.9C226.4,230.1,221.9,224.7,217.8,218.8z"/>
		<path class="st0" d="M231.1,234.7c-3.7,5.5-8.2,10.9-13.4,16C221.9,244.7,226.4,239.3,231.1,234.7z"/>
		<path class="st3" d="M217.8,218.8c4.1,6,8.6,11.3,13.4,15.9c-5.4-3.9-11.4-7.4-18-10.4c-11.3-8-22.1-18.7-31.8-31.4
			C195.6,200.2,207.9,209.1,217.8,218.8z"/>
		<path class="st3" d="M231.1,234.7c-4.8,4.6-9.3,10-13.4,16c-9.9,9.7-22.2,18.5-36.5,25.9c9.7-12.8,20.6-23.4,31.9-31.4
			C219.7,242.1,225.8,238.6,231.1,234.7z"/>
		<path class="st0" d="M213.1,224.3c6.6,3,12.6,6.5,18,10.4C225.1,232,219,228.5,213.1,224.3z"/>
		<path class="st0" d="M231.1,234.7c-5.4,3.9-11.4,7.4-18,10.4C219.1,240.9,225.1,237.4,231.1,234.7z"/>
		<path class="st3" d="M213.1,224.3c5.9,4.2,12,7.7,18,10.4c-6.4-1.8-13.3-3-20.5-3.6h0c-13.3-3.7-27.1-10-40.6-18.6
			C185.9,214.5,200.5,218.6,213.1,224.3z"/>
		<path class="st3" d="M231.1,234.7c-6.1,2.7-12.1,6.2-18,10.4c-12.6,5.8-27.2,9.8-43.2,11.9c13.5-8.7,27.3-15,40.7-18.6
			C217.9,237.8,224.8,236.5,231.1,234.7z"/>
		<path class="st0" d="M210.6,231.1c7.2,0.6,14.1,1.8,20.5,3.6C224.5,234.2,217.6,233,210.6,231.1z"/>
		<path class="st0" d="M231.1,234.7c-6.4,1.8-13.3,3-20.5,3.6C217.6,236.4,224.5,235.2,231.1,234.7z"/>
		<path class="st3" d="M210.6,231.1c7,1.9,13.9,3.2,20.5,3.6c-6.6,0.5-13.5,1.7-20.5,3.6c-13.8,1.1-28.9-0.1-44.6-3.6
			C181.7,231.2,196.8,230,210.6,231.1L210.6,231.1z"/>
		<path class="st2" d="M210.6,231.1c-13.8-1.1-28.9,0.1-44.5,3.6c-17.8-4-36.3-11-54.3-21.1c20.4-3.3,40.2-3.5,58.3-1.2
			C183.5,221.1,197.3,227.4,210.6,231.1z"/>
		<path class="st2" d="M166.1,234.7c15.6,3.5,30.8,4.7,44.6,3.6c-13.3,3.7-27.1,10-40.7,18.6c-18.1,2.3-37.9,2.1-58.3-1.2
			C129.8,245.7,148.3,238.7,166.1,234.7z"/>
		<path class="st2" d="M198.6,178.3c4.8,15.3,11.3,29,19.2,40.4c-9.9-9.7-22.2-18.5-36.5-25.9c-11.1-14.5-20.7-31.8-28.1-51.1
			C170.9,152.4,186.2,164.9,198.6,178.3z"/>
		<path class="st2" d="M217.8,250.7c-7.9,11.4-14.4,25.1-19.1,40.4c-12.4,13.4-27.7,25.9-45.4,36.5c7.4-19.3,17-36.5,28.1-51
			C195.5,269.2,207.9,260.4,217.8,250.7z"/>
		<path class="st0" d="M150.9,14.1c17.1,7.6,33.9,21.5,48.4,40c-6.2,18.9-9.7,40.4-9.7,63.2c0,1.2,0,2.3,0,3.4
			c-0.7-0.9-1.4-1.8-2.2-2.6c-14.6-17.5-31.1-31.7-48-42.2C138.7,52.4,142.6,31,150.9,14.1z"/>
		<path class="st0" d="M199.3,415.3c-14.5,18.5-31.3,32.4-48.4,40c-8.2-16.8-12.2-38.2-11.4-61.8c16.9-10.5,33.4-24.8,48-42.2
			c0.7-0.9,1.5-1.8,2.2-2.6c0,1.1,0,2.3,0,3.4C189.6,374.9,193.1,396.4,199.3,415.3z"/>
		<path class="st1" d="M189.7,120.8c0.3,20.6,3.5,40.1,8.9,57.6c-12.4-13.4-27.7-25.9-45.4-36.5c-0.4-1.1-0.8-2.1-1.2-3.2
			c-7.8-21.4-11.9-42.8-12.5-62.7c16.9,10.5,33.4,24.7,48,42.2C188.2,119,189,119.9,189.7,120.8z"/>
		<path class="st1" d="M198.6,291.1c-5.4,17.4-8.6,36.9-8.9,57.6c-0.7,0.9-1.4,1.8-2.2,2.6c-14.6,17.5-31.1,31.7-48,42.2
			c0.7-19.9,4.7-41.3,12.5-62.7c0.4-1.1,0.8-2.1,1.2-3.2C170.9,317,186.2,304.5,198.6,291.1z"/>
		<path class="st2" d="M181.3,192.9c9.7,12.8,20.5,23.4,31.8,31.4c-12.6-5.8-27.2-9.8-43.1-11.8c-15.4-9.8-30.4-22.8-43.9-38.4
			C146.4,178,165.1,184.5,181.3,192.9z"/>
		<path class="st2" d="M213.1,245.1c-11.3,8-22.1,18.7-31.9,31.4c-16.2,8.4-34.9,14.9-55.1,18.8c13.5-15.6,28.5-28.5,43.9-38.4
			C185.9,254.9,200.6,250.9,213.1,245.1z"/>
		<path class="st1" d="M153.2,141.8c7.4,19.3,17,36.6,28.1,51.1c-16.2-8.4-34.9-14.9-55.2-18.8c-0.8-0.9-1.5-1.7-2.2-2.6
			c-14.7-17.5-25.8-36.2-33.2-54.6c19.5,4.1,39.8,11.8,59.6,23.2C151.2,140.7,152.2,141.2,153.2,141.8z"/>
		<path class="st1" d="M181.3,276.5c-11.1,14.5-20.7,31.8-28.1,51c-1,0.6-2,1.2-3,1.7c-19.7,11.4-40.1,19.1-59.6,23.2
			c7.4-18.5,18.6-37.2,33.2-54.6c0.7-0.9,1.5-1.7,2.2-2.6C146.4,291.4,165.1,284.9,181.3,276.5z"/>
		<path class="st0" d="M152,138.6c0.4,1.1,0.8,2.1,1.2,3.2c-1-0.6-1.9-1.2-2.9-1.7c-19.7-11.4-40.1-19.1-59.6-23.2
			c-8.8-21.8-12.4-43.3-10.4-62c18.7,1.3,39.2,8.6,59.2,21C140.1,95.8,144.2,117.2,152,138.6z"/>
		<path class="st0" d="M153.2,327.6c-0.4,1.1-0.8,2.1-1.2,3.2c-7.8,21.4-11.9,42.8-12.5,62.7c-20,12.5-40.5,19.7-59.2,21
			c-2-18.6,1.6-40.1,10.4-62c19.5-4.1,39.8-11.8,59.6-23.2C151.2,328.8,152.2,328.2,153.2,327.6z"/>
		<path class="st1" d="M111.7,255.8c20.4,3.3,40.2,3.5,58.3,1.2c-15.4,9.9-30.3,22.8-43.9,38.4c-1.1,0.2-2.2,0.4-3.4,0.6
			c-22.4,4-44.2,4.3-63.9,1.5c13.3-14.8,30.2-28.6,49.9-40C109.8,256.9,110.7,256.3,111.7,255.8z"/>
		<path class="st1" d="M170,212.5c-18.1-2.3-37.9-2.1-58.3,1.2c-1-0.6-2-1.1-3-1.7c-19.7-11.4-36.6-25.1-49.9-40
			c19.7-2.8,41.5-2.5,63.9,1.5c1.1,0.2,2.2,0.4,3.4,0.6C139.6,189.7,154.6,202.6,170,212.5z"/>
		<path class="st0" d="M123.9,171.5c0.7,0.9,1.5,1.7,2.2,2.6c-1.1-0.2-2.2-0.4-3.4-0.6c-22.4-4-44.2-4.3-63.9-1.5
			c-15.7-17.5-26.5-36.5-31-54.7c18-5.2,39.8-5.4,62.8-0.5C98.1,135.3,109.3,154,123.9,171.5z"/>
		<path class="st0" d="M126.1,295.3c-0.8,0.9-1.5,1.7-2.2,2.6c-14.7,17.5-25.8,36.2-33.2,54.6c-23,4.9-44.8,4.7-62.8-0.5
			c4.5-18.2,15.3-37.1,31-54.6c19.7,2.8,41.5,2.5,63.9-1.5C123.9,295.8,125,295.6,126.1,295.3z"/>
		<path class="st1" d="M111.7,213.7c18,10.1,36.5,17.1,54.3,21.1c-17.8,4-36.3,11-54.3,21.1c-1.1-0.2-2.2-0.4-3.4-0.6
			c-22.5-4-43-11.1-60.6-20.5c17.6-9.4,38.1-16.5,60.6-20.5C109.5,214,110.6,213.8,111.7,213.7z"/>
		<path class="st0" d="M108.8,212c1,0.6,2,1.1,3,1.7c-1.1,0.2-2.2,0.4-3.4,0.6c-22.5,4-43,11.1-60.6,20.5C27,223.6,10.5,209.5,0,194
			c15.2-11,35.6-18.7,58.9-22C72.2,186.8,89,200.6,108.8,212z"/>
		<path class="st0" d="M111.7,255.8c-1,0.6-2,1.1-3,1.7c-19.7,11.4-36.6,25.2-49.9,40c-23.3-3.3-43.7-10.9-58.9-22
			c10.5-15.5,27-29.7,47.8-40.8c17.6,9.4,38.1,16.5,60.6,20.5C109.5,255.4,110.6,255.6,111.7,255.8z"/>
	</g>
	<g>
	</g>
</g>
</svg>
