<?xml version="1.0" encoding="utf-8"?>
<!-- Generator: Adobe Illustrator 21.0.1, SVG Export Plug-In . SVG Version: 6.00 Build 0)  -->
<svg version="1.1" id="Layer_1" xmlns="http://www.w3.org/2000/svg" xmlns:xlink="http://www.w3.org/1999/xlink" x="0px" y="0px"
	 viewBox="0 0 1366 768" style="enable-background:new 0 0 1366 768;" xml:space="preserve">
<style type="text/css">
	.st0{fill:#DB5349;}
	.st1{fill:#00EDFF;}
	.st2{fill:#E59D35;}
	.st3{fill:#1FAA2C;}
</style>
<g>
	<g id="XMLID_1_">
		<g>
			<path class="st0" d="M840.2,334c72.3,16.2,117.8,12.6,116.1,22.4c-1.9,10.8-42.1,42-132.2,27.1c-18.2-11.7-38-25.7-58.6-42.7
				C794.2,340.5,819,338,840.2,334z"/>
			<path class="st0" d="M955.2,263.3c1.9,10.8-25.1,53.9-115,70.7c-21.1-4.8-44.5-11.2-69.7-20.1c26.9-10.1,49.3-20.9,67.9-31.9
				C911.9,272.5,953.5,253.6,955.2,263.3z"/>
			<path class="st0" d="M824.1,383.5c62.4,40,106.4,52.2,101.4,60.8c-5.5,9.5-53.9,25.1-133.5-19.8c-13.1-17.2-26.9-37.2-40.4-60.2
				C778.6,373.8,802.8,379.9,824.1,383.5z"/>
			<path class="st0" d="M922.3,176.2c5.5,9.5-5.2,59.2-83.8,105.7c-21.5,2.8-45.7,4.7-72.4,4.9c21.8-18.7,39.2-36.5,52.9-53.2
				C884.8,199.6,917.3,167.6,922.3,176.2z"/>
			<path class="st0" d="M792,424.5c45,58.9,82.1,85.4,74.5,91.8c-8.4,7-59.2,5.2-118.7-64.2c-6.5-20.7-12.6-44.1-17.4-70.4
				C752.6,399.9,773.2,413.8,792,424.5z"/>
			<path class="st0" d="M861.6,105.6c8.4,7.1,15.4,57.4-42.6,128c-19.2,9.9-41.3,20.1-66.3,29.4c14.1-25,24.3-47.7,31.5-68.1
				C834.4,140.4,854,99.3,861.6,105.6z"/>
			<path class="st0" d="M747.8,452c22.1,70.7,47.9,108.3,38.6,111.7c-10.3,3.8-57.4-15.4-89.5-100.9c1-21.6,3.3-45.8,7.7-72.1
				C719.2,415.4,733.8,435.6,747.8,452z"/>
			<path class="st0" d="M780.5,60.1c10.3,3.8,34.1,48.7,3.7,134.9c-13.5,14.6-29.1,30.2-47.4,46.1c2-23.5,1.8-46.1,0-67.2
				C766.6,103.6,771,56.6,780.5,60.1z"/>
			<path class="st1" d="M770.5,313.9c25.2,8.9,48.6,15.4,69.7,20.1c-21.2,4-46,6.5-74.7,6.8c-6.8-5.6-13.8-11.6-20.7-17.9
				C753.8,319.9,762.3,316.9,770.5,313.9z"/>
			<path class="st1" d="M838.4,281.9c-18.6,11-41,21.8-67.9,31.9c-8.3-3-16.9-6.2-25.6-9.8c7.5-5.8,14.5-11.5,21.1-17.2
				C792.8,286.7,817,284.7,838.4,281.9z"/>
			<path class="st1" d="M819,233.7c-13.7,16.7-31.1,34.5-52.9,53.2c-8.9,0.1-18-0.1-27.4-0.4c5-8,9.7-15.8,14-23.4
				C777.7,253.7,799.8,243.6,819,233.7z"/>
			<path class="st1" d="M765.5,340.7c20.6,17,40.4,31.1,58.6,42.7c-21.3-3.5-45.4-9.6-72.5-19.2c-4.5-7.6-9-15.6-13.3-23.9
				C747.7,340.7,756.8,340.8,765.5,340.7z"/>
			<path class="st2" d="M738.7,286.5c9.4,0.4,18.5,0.5,27.4,0.4c-6.6,5.7-13.7,11.4-21.1,17.2c-4.6-1.9-9.2-3.8-13.8-5.8
				C733.7,294.3,736.2,290.3,738.7,286.5z"/>
			<path class="st2" d="M765.5,340.7c-8.7,0.1-17.8-0.1-27.3-0.4c-2.3-4.4-4.6-8.8-6.9-13.4c4.6-1.4,9-2.8,13.4-4.2
				C751.7,329.1,758.7,335.1,765.5,340.7z"/>
			<path class="st1" d="M784.2,194.9c-7.2,20.4-17.4,43.1-31.5,68.1c-6.3,2.4-12.8,4.7-19.5,6.9c1.6-9.7,2.9-19.4,3.7-28.9
				C755,225.1,770.7,209.6,784.2,194.9z"/>
			<path class="st1" d="M751.6,364.2c13.5,23,27.3,43,40.4,60.2c-18.8-10.6-39.4-24.6-61.6-42.9c-1.6-8.7-3.1-17.7-4.3-27
				C734.8,358.1,743.3,361.4,751.6,364.2z"/>
			<path class="st2" d="M770.5,313.9c-8.2,3.1-16.7,6-25.8,8.9c-3.7-3.3-7.3-6.7-11-10.2c3.8-2.8,7.5-5.7,11.2-8.5
				C753.6,307.6,762.2,310.9,770.5,313.9z"/>
			<path class="st2" d="M752.7,263c-4.3,7.6-8.9,15.4-14,23.4c-2.9-0.1-5.8-0.2-8.7-0.4c1.2-5.4,2.2-10.8,3.1-16.1
				C739.8,267.7,746.3,265.4,752.7,263z"/>
			<path class="st2" d="M738.2,340.3c4.4,8.3,8.9,16.3,13.3,23.9c-8.2-2.9-16.7-6.1-25.5-9.7c-0.7-4.9-1.3-9.8-1.9-14.9
				C729,339.9,733.6,340.1,738.2,340.3z"/>
			<path class="st1" d="M736.8,173.9c1.8,21,2.1,43.7,0,67.2c-6.6,5.8-13.6,11.6-20.9,17.4c-1.8-9.7-4-19.2-6.4-28.4
				C720.5,210.1,729.4,191.3,736.8,173.9z"/>
			<path class="st3" d="M733.8,312.6c3.7,3.5,7.4,6.9,11,10.2c-4.4,1.4-8.8,2.8-13.4,4.2c-1.5-3.1-3-6.2-4.5-9.3
				C729.2,316,731.5,314.3,733.8,312.6z"/>
			<path class="st3" d="M730,286.1c2.9,0.1,5.8,0.3,8.7,0.4c-2.4,3.9-5,7.8-7.6,11.8c-1.2-0.5-2.4-1-3.5-1.6
				C728.4,293.1,729.2,289.6,730,286.1z"/>
			<path class="st3" d="M744.9,304.1c-3.6,2.8-7.3,5.6-11.2,8.5c-2.5-2.3-5-4.7-7.4-7.2c1.6-2.4,3.2-4.8,4.8-7.1
				C735.7,300.3,740.3,302.2,744.9,304.1z"/>
			<path class="st2" d="M736.8,241c-0.8,9.5-2,19.2-3.7,28.9c-4.8,1.6-9.7,3.2-14.6,4.7c-0.7-5.5-1.6-10.9-2.6-16.2
				C723.2,252.6,730.2,246.8,736.8,241z"/>
			<path class="st3" d="M731.4,327c2.3,4.6,4.5,9,6.9,13.4c-4.6-0.2-9.2-0.4-14-0.7c-0.4-3.4-0.8-6.8-1.1-10.3
				C725.9,328.6,728.7,327.8,731.4,327z"/>
			<path class="st1" d="M730.4,381.6c4.8,26.3,11,49.8,17.4,70.4c-14.1-16.4-28.6-36.6-43.2-61.3c1.5-8.7,3.2-17.7,5.2-26.9
				C716.8,370.1,723.7,376,730.4,381.6z"/>
			<path class="st3" d="M733.1,269.9c-0.9,5.4-1.9,10.7-3.1,16.1c-3.4-0.2-6.8-0.4-10.2-0.6c-0.4-3.6-0.8-7.2-1.3-10.8
				C723.5,273.1,728.3,271.5,733.1,269.9z"/>
			<path class="st3" d="M733.8,312.6c-2.3,1.7-4.6,3.4-6.9,5.1c-1.1-2.2-2.1-4.5-3.2-6.8c0.3-0.9,0.5-1.8,0.8-2.7
				c0.6-0.9,1.3-1.9,1.9-2.8C728.8,307.8,731.3,310.2,733.8,312.6z"/>
			<path class="st3" d="M727.5,296.7c1.2,0.5,2.4,1,3.5,1.6c-1.5,2.4-3.1,4.7-4.8,7.1c-0.3-0.3-0.6-0.6-0.9-0.8
				C726.2,301.9,726.9,299.3,727.5,296.7z"/>
			<path class="st3" d="M730,286.1c-0.8,3.5-1.6,7.1-2.5,10.6c-2.3-1-4.6-2.1-7-3.2c-0.2-2.7-0.5-5.4-0.7-8.1
				C723.2,285.7,726.6,285.9,730,286.1z"/>
			<path class="st3" d="M726.8,317.6c1.5,3.1,3,6.2,4.5,9.3c-2.7,0.8-5.5,1.6-8.2,2.4c-0.3-2.8-0.5-5.6-0.8-8.5
				C723.9,319.8,725.4,318.7,726.8,317.6z"/>
			<path class="st2" d="M726.1,354.5c1.3,9.3,2.7,18.3,4.3,27c-6.7-5.5-13.6-11.5-20.6-17.8c1-4.8,2.1-9.7,3.3-14.6
				C717.5,351,721.8,352.8,726.1,354.5z"/>
			<path class="st3" d="M726.3,305.4c-0.6,0.9-1.2,1.9-1.9,2.8c0.4-1.2,0.7-2.4,1-3.6C725.7,304.8,726,305.1,726.3,305.4z"/>
			<path class="st3" d="M727.5,296.7c-0.7,2.6-1.3,5.2-2.1,7.8c-1.5-1.5-3-3-4.5-4.5c-0.1-2.2-0.3-4.4-0.5-6.5
				C722.9,294.6,725.2,295.7,727.5,296.7z"/>
			<path class="st3" d="M725.5,304.5c-0.3,1.2-0.7,2.4-1,3.6c-0.4,0.6-0.8,1.2-1.2,1.8c-0.6-1.4-1.3-2.8-1.9-4.2
				c-0.1-1.1-0.1-2.3-0.2-3.4c0-0.8-0.1-1.5-0.1-2.2C722.5,301.6,724,303.1,725.5,304.5z"/>
			<path class="st3" d="M723.6,310.9c1.1,2.3,2.1,4.6,3.2,6.8c-1.5,1.1-3,2.1-4.5,3.2c-0.1-1.5-0.2-3.1-0.4-4.6
				c0.3-1.1,0.7-2.2,1-3.3C723.2,312.3,723.4,311.6,723.6,310.9z"/>
			<path class="st3" d="M724.2,339.6c0.6,5.1,1.2,10,1.9,14.9c-4.2-1.7-8.6-3.5-12.9-5.4c0.8-3.3,1.6-6.7,2.5-10
				C718.5,339.3,721.4,339.5,724.2,339.6z"/>
			<path class="st3" d="M723.2,309.9c0.4-0.6,0.8-1.2,1.2-1.8c-0.2,0.9-0.5,1.8-0.8,2.7C723.5,310.5,723.3,310.2,723.2,309.9z"/>
			<path class="st3" d="M723.2,309.9c0.1,0.3,0.3,0.6,0.4,0.9c-0.2,0.7-0.4,1.4-0.6,2.1c-0.3,1.1-0.7,2.2-1,3.3
				c-0.1-1.4-0.2-2.8-0.3-4.2v0C722.2,311.4,722.7,310.6,723.2,309.9z"/>
			<path class="st3" d="M723.2,309.9c-0.5,0.7-1,1.4-1.5,2.2c-0.1-2.1-0.3-4.2-0.4-6.4C721.9,307.1,722.6,308.5,723.2,309.9z"/>
			<path class="st3" d="M723.1,329.4c0.3,3.5,0.7,6.9,1.1,10.3c-2.8-0.2-5.7-0.4-8.6-0.6c0.7-2.7,1.4-5.5,2.2-8.2
				C719.6,330.3,721.4,329.9,723.1,329.4z"/>
			<path class="st3" d="M722.4,320.9c0.2,2.9,0.5,5.7,0.8,8.5c-1.8,0.5-3.5,1-5.3,1.5c0.8-2.8,1.6-5.6,2.4-8.4
				C720.9,321.9,721.7,321.4,722.4,320.9z"/>
			<path class="st3" d="M722.4,320.9c-0.7,0.5-1.4,1-2.2,1.5c0.6-2,1.2-4.1,1.8-6.1C722.1,317.8,722.2,319.3,722.4,320.9z"/>
			<path class="st3" d="M721.7,312.1c0.1,1.4,0.2,2.8,0.3,4.2c-0.6,2-1.2,4.1-1.8,6.1c-3.1,2.2-6.2,4.4-9.4,6.6
				c-0.6,0.4-1.2,0.8-1.8,1.2c2-2.9,4-5.8,6.1-8.7C717.4,318.3,719.6,315.2,721.7,312.1z"/>
			<path class="st0" d="M695,45c9.9,0,35.4,54.4,41.8,128.9c-7.4,17.4-16.3,36.2-27.3,56.1c-5.6-21.1-12.9-40.8-21-58.8
				C692,97.7,685.2,45,695,45z"/>
			<path class="st3" d="M721.7,312.1L721.7,312.1c-2.2,3.1-4.4,6.2-6.6,9.4c-2.1,2.9-4.1,5.8-6.1,8.7c-2.3,1.6-4.6,3.2-6.9,4.8
				c-2.7,0.7-5.5,1.4-8.2,2.2c-2.8-0.3-5.6-0.5-8.4-0.7c-2.5-1.2-5.1-2.4-7.6-3.6c-2-2-4-4-6-6c-1.2-2.5-2.4-5.1-3.6-7.6
				c-0.2-2.8-0.5-5.6-0.8-8.4c2-7.1,3.8-14.2,5.4-21.3c2.2-1.5,4.4-2.9,6.5-4.4c3.5-0.8,6.9-1.7,10.3-2.5c3.5,0.4,7,0.8,10.5,1.1
				c3.2,1.6,6.4,3.1,9.5,4.7c2.4,2.6,4.9,5.1,7.3,7.6c1.4,3.3,2.8,6.5,4.2,9.6C721.4,307.9,721.6,310,721.7,312.1z"/>
			<path class="st3" d="M721.1,302.3c0.1,1.1,0.1,2.3,0.2,3.4c-1.4-3.2-2.8-6.4-4.2-9.6c1.3,1.4,2.6,2.7,3.9,4
				C721,300.8,721.1,301.6,721.1,302.3z"/>
			<path class="st3" d="M720.5,293.5c0.2,2.2,0.3,4.4,0.5,6.5c-1.3-1.3-2.6-2.6-3.9-4c-0.5-1.1-0.9-2.1-1.4-3.2
				c-0.3-0.7-0.6-1.4-0.9-2C716.7,291.8,718.6,292.7,720.5,293.5z"/>
			<path class="st3" d="M719.8,285.5c0.3,2.7,0.5,5.4,0.7,8.1c-1.9-0.9-3.8-1.8-5.7-2.6c-0.9-2-1.8-4-2.7-6
				C714.7,285.1,717.3,285.3,719.8,285.5z"/>
			<path class="st3" d="M718.5,274.6c0.5,3.6,0.9,7.2,1.3,10.8c-2.5-0.2-5.1-0.4-7.6-0.6c-1.1-2.5-2.3-4.9-3.5-7.3
				C712,276.6,715.3,275.6,718.5,274.6z"/>
			<path class="st3" d="M720.2,322.4c-0.8,2.8-1.6,5.6-2.4,8.4c-3.7,1-7.5,2.1-11.3,3c0.8-1.2,1.7-2.5,2.5-3.7
				c0.6-0.4,1.2-0.8,1.8-1.2C714,326.8,717.1,324.6,720.2,322.4z"/>
			<path class="st3" d="M715.7,292.9c0.5,1.1,0.9,2.1,1.4,3.2c-2.4-2.5-4.9-5-7.3-7.6c1.7,0.8,3.4,1.6,5.1,2.4
				C715.1,291.6,715.4,292.3,715.7,292.9z"/>
			<path class="st3" d="M717.8,330.8c-0.8,2.8-1.5,5.5-2.2,8.2c-3.9-0.3-7.9-0.6-12-1c0.9-1.4,1.9-2.8,2.8-4.2
				C710.3,332.9,714.1,331.9,717.8,330.8z"/>
			<path class="st3" d="M715.9,258.4c1,5.3,1.9,10.8,2.6,16.2c-3.2,1-6.5,2-9.8,2.9c-1.6-3.3-3.2-6.5-4.9-9.8
				C707.9,264.7,712,261.5,715.9,258.4z"/>
			<path class="st3" d="M712.2,284.9c0.9,2,1.8,4,2.7,6c-1.7-0.8-3.4-1.6-5.1-2.4c-0.8-0.8-1.6-1.6-2.3-2.5c-0.5-0.6-1-1.1-1.5-1.6
				C708,284.5,710.1,284.7,712.2,284.9z"/>
			<path class="st3" d="M715.7,339.1c-0.9,3.4-1.7,6.7-2.5,10c-4.2-1.8-8.5-3.7-12.9-5.7c1.1-1.8,2.3-3.5,3.4-5.3
				C707.7,338.5,711.7,338.8,715.7,339.1z"/>
			<path class="st3" d="M713.1,349.1c-1.2,5-2.3,9.8-3.3,14.6c-4.6-4.2-9.3-8.6-14.1-13.2c1.5-2.4,3-4.8,4.6-7.2
				C704.6,345.4,708.9,347.3,713.1,349.1z"/>
			<path class="st2" d="M709.5,230c2.5,9.2,4.6,18.7,6.4,28.4c-3.9,3.1-8,6.3-12.1,9.4c-2.6-4.9-5.2-9.7-8-14.3
				C700.7,245.5,705.2,237.6,709.5,230z"/>
			<path class="st3" d="M707.4,286c0.8,0.8,1.6,1.7,2.3,2.5c-3.1-1.5-6.3-3.1-9.5-4.7c1.9,0.2,3.8,0.4,5.6,0.5
				C706.4,284.9,706.9,285.4,707.4,286z"/>
			<path class="st3" d="M708.7,277.5c1.2,2.4,2.3,4.9,3.5,7.3c-2.1-0.2-4.2-0.3-6.3-0.5c-1.5-1.6-3-3.2-4.6-4.7
				C703.8,278.9,706.2,278.2,708.7,277.5z"/>
			<path class="st3" d="M709,330.2c-0.9,1.2-1.7,2.5-2.5,3.7c-0.8,0.2-1.5,0.4-2.3,0.6c-0.7,0.2-1.4,0.4-2.1,0.5
				C704.4,333.4,706.7,331.8,709,330.2z"/>
			<path class="st3" d="M704.2,334.5c0.8-0.2,1.5-0.4,2.3-0.6c-1,1.4-1.9,2.8-2.8,4.2c-1.7-0.1-3.4-0.3-5.2-0.5
				c1.2-0.9,2.4-1.8,3.7-2.6C702.8,334.8,703.5,334.6,704.2,334.5z"/>
			<path class="st2" d="M709.8,363.8c-2,9.2-3.7,18.2-5.2,26.9c-5.3-9-10.6-18.5-15.8-28.7c2.2-3.8,4.5-7.6,6.9-11.4
				C700.5,355.2,705.2,359.6,709.8,363.8z"/>
			<path class="st3" d="M703.8,267.8c1.7,3.2,3.3,6.5,4.9,9.8c-2.4,0.7-4.9,1.4-7.4,2.1c-1.9-1.9-3.8-3.9-5.8-5.7
				C698.3,271.9,701.1,269.8,703.8,267.8z"/>
			<path class="st3" d="M701.3,279.6c1.5,1.6,3,3.1,4.6,4.7c-1.9-0.2-3.7-0.4-5.6-0.5c-1-0.5-2-1-3-1.5c-0.7-0.3-1.3-0.7-2-1
				C697.3,280.7,699.3,280.2,701.3,279.6z"/>
			<path class="st3" d="M703.7,338.1c-1.1,1.8-2.3,3.5-3.4,5.3c-1.9-0.9-3.9-1.8-5.9-2.7c1.4-1,2.7-2,4.1-3
				C700.2,337.8,701.9,338,703.7,338.1z"/>
			<path class="st3" d="M702.1,335c-1.2,0.9-2.4,1.7-3.7,2.6c-0.8-0.1-1.6-0.1-2.4-0.2c-0.7-0.1-1.4-0.1-2.1-0.2
				C696.7,336.5,699.4,335.7,702.1,335z"/>
			<path class="st3" d="M697.2,282.3c1,0.5,2,1,3,1.5c-3.5-0.3-6.9-0.7-10.5-1.1c1.8-0.5,3.6-0.9,5.4-1.4
				C695.9,281.6,696.5,281.9,697.2,282.3z"/>
			<path class="st3" d="M696.1,337.4c0.8,0.1,1.6,0.1,2.4,0.2c-1.4,1-2.8,2-4.1,3c-1.6-0.7-3.1-1.5-4.7-2.2c1.4-0.4,2.9-0.8,4.3-1.2
				C694.7,337.3,695.4,337.4,696.1,337.4z"/>
			<path class="st3" d="M703.8,267.8c-2.7,2-5.4,4.1-8.2,6.1c-2.6-2.5-5.3-5-8-7.5c2.8-4.4,5.6-8.7,8.2-13
				C698.5,258.1,701.2,262.9,703.8,267.8z"/>
			<path class="st3" d="M700.2,343.4c-1.5,2.4-3.1,4.8-4.6,7.2c-2.1-2-4.2-4.1-6.3-6.2c1.7-1.3,3.3-2.5,5-3.8
				C696.3,341.6,698.3,342.5,700.2,343.4z"/>
			<path class="st1" d="M709.5,230c-4.2,7.7-8.8,15.5-13.7,23.5c-4.1-6.9-8.3-13.7-12.8-20.1c2.9-21.8,4.5-42.7,5.4-62.1
				C696.5,189.2,703.8,208.9,709.5,230z"/>
			<path class="st3" d="M701.3,279.6c-2,0.6-4,1.1-6.1,1.6c-2-1-3.9-1.9-5.9-2.9c2.1-1.5,4.2-3,6.2-4.5
				C697.5,275.8,699.4,277.7,701.3,279.6z"/>
			<path class="st1" d="M704.6,390.7c-4.4,26.4-6.7,50.5-7.7,72.1c-8.1-21.6-15.3-47.5-20.7-78.4c4-7.4,8.2-14.9,12.6-22.4
				C694.1,372.2,699.3,381.7,704.6,390.7z"/>
			<path class="st0" d="M696.9,462.8c-3.4,74,8,118.2-1.9,118.2c-11.2,0-50.2-35.5-49.6-131c8.6-20.7,18.7-42.9,30.9-65.6
				C681.6,415.2,688.8,441.1,696.9,462.8z"/>
			<path class="st3" d="M694,337.2c-1.4,0.4-2.9,0.8-4.3,1.2c-0.7-0.3-1.4-0.7-2.1-1c-0.6-0.3-1.3-0.6-2-0.9
				C688.3,336.7,691.2,337,694,337.2z"/>
			<path class="st3" d="M695.5,273.9c-2.1,1.5-4.1,3-6.2,4.5c-2.5-1.2-4.9-2.3-7.4-3.4c1.9-2.9,3.8-5.7,5.6-8.6
				C690.3,268.9,692.9,271.4,695.5,273.9z"/>
			<path class="st3" d="M689.3,278.4c2,0.9,3.9,1.9,5.9,2.9c-1.8,0.5-3.6,0.9-5.4,1.4c-1.1-0.1-2.3-0.3-3.4-0.4
				c-0.8-0.1-1.5-0.2-2.2-0.3C685.9,280.8,687.6,279.6,689.3,278.4z"/>
			<path class="st3" d="M689.6,338.4c1.6,0.8,3.2,1.5,4.7,2.2c-1.7,1.2-3.4,2.5-5,3.8c-1.5-1.5-3.1-3-4.6-4.6
				C686.4,339.4,688,338.9,689.6,338.4z"/>
			<path class="st3" d="M689.3,344.4c2.1,2.1,4.2,4.1,6.3,6.2c-2.4,3.8-4.6,7.6-6.9,11.4c-2.1-4-4.1-8.1-6.2-12.3
				C684.8,347.9,687.1,346.2,689.3,344.4z"/>
			<path class="st3" d="M686.4,282.3c1.1,0.1,2.3,0.3,3.4,0.4c-3.4,0.9-6.8,1.7-10.3,2.5c1.6-1.1,3.1-2.1,4.6-3.2
				C684.9,282.1,685.6,282.2,686.4,282.3z"/>
			<path class="st3" d="M687.5,337.4c0.7,0.3,1.4,0.7,2.1,1c-1.6,0.5-3.3,0.9-4.9,1.4c-1.2-1.2-2.4-2.4-3.7-3.7
				c1.5,0.1,3,0.2,4.5,0.3C686.2,336.8,686.8,337.1,687.5,337.4z"/>
			<path class="st2" d="M695.8,253.4c-2.6,4.3-5.4,8.6-8.2,13c-2.8-2.5-5.6-5-8.5-7.4c1.5-8.7,2.8-17.2,3.9-25.7
				C687.4,239.8,691.7,246.5,695.8,253.4z"/>
			<path class="st3" d="M689.3,278.4c-1.7,1.2-3.4,2.4-5.2,3.6c-2.2-0.3-4.4-0.5-6.5-0.7c1.5-2.1,2.9-4.2,4.3-6.3
				C684.4,276.1,686.9,277.2,689.3,278.4z"/>
			<path class="st3" d="M684.7,339.9c1.5,1.5,3.1,3.1,4.6,4.6c-2.3,1.7-4.5,3.5-6.8,5.2c-1.3-2.6-2.6-5.3-3.9-8
				C680.7,341.1,682.7,340.5,684.7,339.9z"/>
			<path class="st3" d="M687.6,266.4c-1.8,2.8-3.7,5.7-5.6,8.6c-1.8-0.8-3.6-1.6-5.3-2.3c0.9-4.6,1.7-9.1,2.5-13.6
				C682,261.4,684.8,263.9,687.6,266.4z"/>
			<path class="st0" d="M688.5,171.2c-0.9,19.4-2.6,40.3-5.4,62.1c-13.3-19.6-28-37.1-42.9-52.4c-21.8-70.2-46.2-117.5-37-120.8
				C612.6,56.6,656.8,100.8,688.5,171.2z"/>
			<path class="st2" d="M682.6,349.7c2.1,4.2,4.1,8.3,6.2,12.3c-4.4,7.5-8.6,15-12.6,22.4c-1.5-8.4-2.8-17.2-4-26.4
				C675.6,355.2,679.1,352.4,682.6,349.7z"/>
			<path class="st3" d="M685.5,336.5c-1.5-0.1-3-0.2-4.5-0.3c-0.5-0.6-1.1-1.1-1.7-1.7c-0.5-0.5-1-1-1.5-1.5
				C680.4,334.1,683,335.3,685.5,336.5z"/>
			<path class="st3" d="M681.1,336.2c1.2,1.2,2.5,2.5,3.7,3.7c-2,0.6-4,1.2-6,1.8c-0.9-1.9-1.8-3.9-2.8-5.9
				C677.7,335.9,679.4,336,681.1,336.2z"/>
			<path class="st3" d="M679.4,334.5c0.6,0.6,1.1,1.1,1.7,1.7c-1.7-0.1-3.4-0.2-5.1-0.3c-0.7-1.6-1.5-3.1-2.2-4.8
				c1.4,0.6,2.7,1.2,4.1,1.9C678.4,333.5,678.9,334,679.4,334.5z"/>
			<path class="st3" d="M684.2,282c-1.5,1.1-3.1,2.1-4.6,3.2c-1.1,0.3-2.2,0.5-3.3,0.8c-0.7,0.2-1.5,0.3-2.2,0.5
				c1.2-1.7,2.4-3.5,3.6-5.2C679.8,281.5,682,281.8,684.2,282z"/>
			<path class="st1" d="M683,233.3c-1.1,8.4-2.4,17-3.9,25.7c-7.5-6.4-15.1-12.3-22.8-17.9c-4.8-21.4-10.4-41.6-16.2-60.2
				C655,196.2,669.7,213.7,683,233.3z"/>
			<path class="st3" d="M678.7,341.7c1.3,2.7,2.6,5.4,3.9,8c-3.5,2.7-7,5.5-10.4,8.3c-0.6-4.5-1.1-9-1.6-13.7
				C673.3,343.4,676,342.5,678.7,341.7z"/>
			<path class="st3" d="M676.2,286c1.1-0.3,2.2-0.5,3.3-0.8c-2.2,1.5-4.3,2.9-6.5,4.4c0.2-0.8,0.4-1.6,0.5-2.4
				c0.2-0.2,0.3-0.5,0.5-0.7C674.7,286.3,675.5,286.1,676.2,286z"/>
			<path class="st3" d="M676.6,272.6c1.8,0.8,3.6,1.5,5.3,2.3c-1.4,2.1-2.8,4.2-4.3,6.3c-0.9-0.1-1.8-0.2-2.8-0.3
				C675.5,278.2,676,275.4,676.6,272.6z"/>
			<path class="st2" d="M679.1,259c-0.8,4.5-1.6,9.1-2.5,13.6c-5.1-2.2-10.1-4.2-15.2-6.1c-1.5-8.7-3.3-17.2-5.1-25.5
				C664,246.7,671.6,252.6,679.1,259z"/>
			<path class="st3" d="M676,335.8c0.9,2,1.8,3.9,2.8,5.9c-2.7,0.8-5.4,1.7-8.1,2.6c-0.3-2.9-0.6-5.8-0.9-8.8
				C671.8,335.6,673.9,335.7,676,335.8z"/>
			<path class="st3" d="M674.8,281.1c0.9,0.1,1.9,0.2,2.8,0.3c-1.2,1.7-2.4,3.4-3.6,5.2c-0.1,0-0.2,0-0.4,0.1
				C674.1,284.7,674.5,282.9,674.8,281.1z"/>
			<path class="st3" d="M677.9,332.9c-1.4-0.6-2.7-1.2-4.1-1.9c-0.3-0.7-0.7-1.4-1-2.1c-0.3-0.7-0.6-1.3-0.9-2
				C673.9,328.9,675.9,330.9,677.9,332.9z"/>
			<path class="st3" d="M676.6,272.6c-0.6,2.8-1.1,5.6-1.7,8.4c-3.7-0.3-7.4-0.6-11.1-0.8c-0.7-4.6-1.5-9.2-2.3-13.7
				C666.5,268.5,671.5,270.5,676.6,272.6z"/>
			<path class="st3" d="M673.8,331.1c0.7,1.6,1.5,3.2,2.2,4.8c-2.1-0.1-4.2-0.2-6.3-0.3c-0.2-2.1-0.4-4.3-0.6-6.5
				C670.7,329.7,672.2,330.4,673.8,331.1z"/>
			<path class="st3" d="M673.6,286.6c0.1,0,0.2-0.1,0.4-0.1c-0.2,0.2-0.3,0.5-0.5,0.7C673.5,287,673.6,286.8,673.6,286.6z"/>
			<path class="st3" d="M674.8,281.1c-0.4,1.8-0.8,3.7-1.2,5.5c-2.9,0.7-5.8,1.4-8.7,2.2c-0.4-2.9-0.8-5.7-1.2-8.5
				C667.4,280.5,671.1,280.7,674.8,281.1z"/>
			<path class="st3" d="M672.8,328.9c0.3,0.7,0.7,1.4,1,2.1c-1.6-0.7-3.1-1.4-4.7-2c-0.2-1.7-0.3-3.4-0.4-5.2c1.1,1,2.1,2.1,3.2,3.1
				C672.2,327.6,672.5,328.3,672.8,328.9z"/>
			<path class="st3" d="M673.6,286.6c0,0.2-0.1,0.4-0.1,0.7c-0.9,1.3-1.8,2.6-2.8,3.8c-1,0.6-1.9,1.2-2.9,1.9
				c-0.7,0.5-1.5,1-2.2,1.4c-0.2-1.9-0.5-3.7-0.8-5.6C667.8,288,670.7,287.3,673.6,286.6z"/>
			<path class="st3" d="M673.5,287.2c-0.2,0.8-0.4,1.6-0.5,2.4c-0.7,0.5-1.5,1-2.2,1.5C671.7,289.8,672.6,288.5,673.5,287.2z"/>
			<path class="st1" d="M672.2,358c1.2,9.2,2.5,18,4,26.4C664.1,407,654,429.3,645.4,450c0.1-21.8,2.3-46.8,7.4-75.2
				C659,369.1,665.5,363.5,672.2,358z"/>
			<path class="st3" d="M670.8,291.1c0.7-0.5,1.5-1,2.2-1.5c-1.6,7.1-3.4,14.2-5.4,21.3c-0.4-4.5-0.9-9-1.5-13.5
				C667.7,295.3,669.2,293.2,670.8,291.1z"/>
			<path class="st2" d="M670.6,344.3c0.5,4.7,1.1,9.2,1.6,13.7c-6.7,5.5-13.2,11.1-19.5,16.7c1.5-8.4,3.2-17.1,5.3-26.2
				C662.2,347.1,666.4,345.7,670.6,344.3z"/>
			<path class="st3" d="M667.9,292.9c1-0.6,1.9-1.2,2.9-1.9c-1.5,2.1-3.1,4.3-4.7,6.4c-0.1-1-0.3-2.1-0.4-3.1
				C666.4,293.9,667.2,293.4,667.9,292.9z"/>
			<path class="st3" d="M671.9,327c-1.1-1-2.1-2.1-3.2-3.1c-0.1-0.8-0.1-1.6-0.2-2.4c0-0.7-0.1-1.4-0.2-2.1
				C669.5,321.9,670.7,324.4,671.9,327z"/>
			<path class="st3" d="M669.7,335.5c0.3,3,0.6,5.9,0.9,8.8c-4.2,1.4-8.4,2.8-12.6,4.3c1-4.4,2-8.9,3.1-13.4
				C664,335.2,666.8,335.4,669.7,335.5z"/>
			<path class="st3" d="M669.1,329c0.2,2.2,0.4,4.3,0.6,6.5c-2.9-0.1-5.7-0.2-8.5-0.3c0.7-2.8,1.4-5.7,2.2-8.6
				C665.3,327.4,667.2,328.2,669.1,329z"/>
			<path class="st3" d="M668.7,323.9c0.1,1.8,0.3,3.5,0.4,5.2c-1.9-0.8-3.8-1.6-5.8-2.5c0.5-2.1,1.1-4.2,1.7-6.3
				C666.2,321.5,667.5,322.7,668.7,323.9z"/>
			<path class="st3" d="M668.5,321.5c0.1,0.8,0.1,1.6,0.2,2.4c-1.2-1.2-2.5-2.4-3.7-3.5c0.4-1.7,0.9-3.3,1.4-5
				c0.7,1.3,1.3,2.7,2,4.1C668.4,320.1,668.5,320.8,668.5,321.5z"/>
			<path class="st3" d="M667.6,310.9c0.3,2.8,0.5,5.6,0.8,8.4c-0.7-1.4-1.3-2.7-2-4.1c0.2-0.8,0.4-1.5,0.6-2.3
				C667.2,312.3,667.4,311.6,667.6,310.9z"/>
			<path class="st3" d="M667.6,310.9c-0.2,0.7-0.4,1.4-0.6,2.1c-0.2,0.8-0.4,1.5-0.6,2.3c-1.8-3.7-3.6-7.3-5.5-10.9
				c0.5-0.7,1-1.4,1.6-2.1c1.2-1.6,2.4-3.2,3.6-4.9C666.6,301.9,667.1,306.4,667.6,310.9z"/>
			<path class="st3" d="M665.7,294.4c0.1,1,0.3,2,0.4,3.1c-1.2,1.6-2.4,3.2-3.6,4.9c-0.5,0.7-1,1.4-1.6,2.1c-0.9-1.7-1.7-3.4-2.6-5
				C660.7,297.7,663.2,296,665.7,294.4z"/>
			<path class="st3" d="M666.4,315.3c-0.5,1.7-0.9,3.4-1.4,5c-3.1-2.9-6.2-5.8-9.3-8.6c1.7-2.4,3.4-4.9,5.2-7.3
				C662.8,308,664.6,311.6,666.4,315.3z"/>
			<path class="st3" d="M665,288.8c0.3,1.9,0.5,3.7,0.8,5.6c-2.5,1.6-5,3.3-7.4,5c-1.3-2.5-2.7-5.1-4.1-7.6
				C657.7,290.8,661.3,289.8,665,288.8z"/>
			<path class="st3" d="M663.7,280.3c0.4,2.8,0.9,5.7,1.2,8.5c-3.6,1-7.2,2-10.8,3.1c-2.2-4.1-4.5-8.1-6.8-12.1
				C652.8,279.8,658.2,280,663.7,280.3z"/>
			<path class="st3" d="M665,320.3c-0.6,2.1-1.1,4.2-1.7,6.3c-4.7-1.9-9.3-3.8-13.9-5.6c2-3.1,4.1-6.2,6.3-9.3
				C658.8,314.5,661.9,317.4,665,320.3z"/>
			<path class="st2" d="M661.4,266.6c0.8,4.5,1.6,9.1,2.3,13.7c-5.5-0.3-10.9-0.5-16.3-0.5c-4.4-7.6-8.9-15-13.5-22.2
				C643,260.2,652.2,263.2,661.4,266.6z"/>
			<path class="st3" d="M663.3,326.6c-0.8,2.9-1.5,5.7-2.2,8.6c-6.8-0.2-13.6-0.3-20.4-0.3c2.7-4.7,5.6-9.3,8.6-13.9
				C654,322.8,658.7,324.6,663.3,326.6z"/>
			<path class="st3" d="M658.3,299.4c0.9,1.7,1.8,3.3,2.6,5c-1.8,2.4-3.5,4.8-5.2,7.3c-2.1-1.9-4.3-3.8-6.4-5.7
				C652.2,303.8,655.2,301.6,658.3,299.4z"/>
			<path class="st2" d="M661.2,335.2c-1.1,4.5-2.2,9-3.1,13.4c-10.6,3.7-20.9,7.7-30.9,11.9c4.1-8.6,8.7-17.1,13.6-25.6
				C647.5,334.8,654.3,334.9,661.2,335.2z"/>
			<path class="st1" d="M656.3,241.1c1.8,8.3,3.6,16.8,5.1,25.5c-9.2-3.4-18.4-6.4-27.6-9c-11.8-18.5-24-35.6-35.8-51.1
				C617.3,215.8,637.1,227.2,656.3,241.1z"/>
			<path class="st3" d="M654.2,291.9c1.4,2.5,2.8,5,4.1,7.6c-3.1,2.1-6.1,4.3-9,6.6c-3.5-3.1-7-6.1-10.5-9
				C643.8,295.2,648.9,293.5,654.2,291.9z"/>
			<path class="st1" d="M658,348.6c-2,9-3.8,17.7-5.3,26.2c-18.3,16.4-34.9,33.2-49.5,49c5.8-20.5,13.6-42,24-63.3
				C637.1,356.3,647.4,352.3,658,348.6z"/>
			<path class="st2" d="M647.4,279.8c2.3,4,4.6,8,6.8,12.1c-5.2,1.6-10.4,3.3-15.5,5.1c-6.8-5.6-13.5-11.1-20.3-16.2
				C627.9,280,637.5,279.7,647.4,279.8z"/>
			<path class="st3" d="M655.7,311.7c-2.2,3.1-4.2,6.2-6.3,9.3c-4.3-1.7-8.7-3.3-13-4.9c4.2-3.4,8.4-6.8,12.8-10.1
				C651.4,307.9,653.5,309.8,655.7,311.7z"/>
			<path class="st1" d="M647.4,279.8c-9.8-0.1-19.5,0.3-29,1c-17.4-13.4-34.7-25.2-51.1-35.8c21.2,2.2,43.7,6.1,66.5,12.6
				C638.4,264.8,643,272.2,647.4,279.8z"/>
			<path class="st0" d="M652.7,374.7c-5.1,28.4-7.3,53.4-7.4,75.2c-27.6,66.6-39.1,117.1-48.2,113.8c-9.5-3.5-14.9-65.8,6.1-140
				C617.9,407.9,634.4,391.2,652.7,374.7z"/>
			<path class="st2" d="M649.4,321c-3,4.6-5.9,9.2-8.6,13.9c-8.8,0-17.5,0.2-26,0.6c6.8-6.6,14-13.1,21.6-19.4
				C640.7,317.7,645.1,319.3,649.4,321z"/>
			<path class="st0" d="M640.2,180.9c5.8,18.6,11.4,38.8,16.2,60.2c-19.2-13.9-39-25.3-58.2-34.6c-44.5-58.5-83.6-94.6-76.1-100.9
				C529.7,99.2,586.4,125.6,640.2,180.9z"/>
			<path class="st2" d="M638.7,297c3.5,2.9,7,5.9,10.5,9c-4.4,3.3-8.7,6.7-12.8,10.1c-8.3-3-16.5-5.8-24.6-8.3
				C620.5,303.9,629.4,300.3,638.7,297z"/>
			<path class="st1" d="M640.8,334.9c-5,8.5-9.5,17-13.6,25.6c-20.3,8.4-39.2,17.4-56.5,26.3c12.5-17.3,27.2-34.8,44.2-51.3
				C623.3,335.1,632,334.9,640.8,334.9z"/>
			<path class="st1" d="M618.4,280.8c6.8,5.2,13.5,10.6,20.3,16.2c-9.3,3.3-18.2,6.9-26.9,10.8c-20.9-6.6-41.2-11.8-60.2-16.1
				C572.2,286.4,594.7,282.5,618.4,280.8z"/>
			<path class="st1" d="M636.4,316.1c-7.6,6.2-14.8,12.7-21.6,19.4c-21.9,1-42.8,3-62.1,5.4c17.6-12,37.4-23.4,59.1-33.1
				C619.9,310.4,628.1,313.1,636.4,316.1z"/>
			<path class="st0" d="M627.2,360.4c-10.3,21.4-18.2,42.8-24,63.3c-49.9,54-78.6,98.8-86.1,92.5c-7.7-6.5,8.5-66.9,53.6-129.5
				C588,377.9,606.9,368.8,627.2,360.4z"/>
			<path class="st0" d="M598.1,206.5c11.8,15.5,24,32.6,35.8,51.1c-22.8-6.5-45.3-10.4-66.5-12.6c-61.9-39.8-110.9-60.3-106-68.8
				C466.4,167.5,528.6,172.9,598.1,206.5z"/>
			<path class="st0" d="M614.8,335.5c-17,16.5-31.7,34-44.2,51.3c-65.4,33.7-107.7,65.9-112.6,57.4c-5.1-8.7,30.8-60,94.6-103.3
				C572,338.5,592.9,336.4,614.8,335.5z"/>
			<path class="st0" d="M567.3,245c16.4,10.5,33.7,22.4,51.1,35.8c-23.7,1.7-46.2,5.7-66.9,10.9c-71.8-16.2-124.8-18.7-123.1-28.4
				C430.2,253.4,490.6,237.2,567.3,245z"/>
			<path class="st0" d="M611.8,307.8c-21.6,9.7-41.4,21.1-59.1,33.1c-73,9.3-123.7,25.1-125.4,15.5c-1.8-9.9,49.5-45.8,124.2-64.7
				C570.5,296,590.8,301.2,611.8,307.8z"/>
		</g>
		<g>
		</g>
	</g>
</g>
</svg>
