<?xml version="1.0" encoding="utf-8"?>
<!-- Generator: Adobe Illustrator 21.0.1, SVG Export Plug-In . SVG Version: 6.00 Build 0)  -->
<svg version="1.1" id="Layer_1" xmlns="http://www.w3.org/2000/svg" xmlns:xlink="http://www.w3.org/1999/xlink" x="0px" y="0px"
	 viewBox="0 0 393.2 265.9" style="enable-background:new 0 0 393.2 265.9;" xml:space="preserve">
<style type="text/css">
	.st0{fill:#0071E9;}
	.st1{fill:#86EFE0;}
	.st2{fill:#EA6D50;}
</style>
<g>
	<g>
		<path class="st0" d="M191,151.1c53.2-61.8,146.2,25.7,146.2,57.4s-65.5,57.4-146.2,57.4S44.8,240.2,44.8,208.5
			S126.4,226.2,191,151.1z"/>
	</g>
	<g>
		<path class="st1" d="M190.2,172c37.9-45.9,107.2,16.6,107.6,39.7c0.5,23.1-46.9,42.9-105.9,44.1c-59,1.2-107.2-16.6-107.6-39.7
			S144.1,227.8,190.2,172z"/>
	</g>
</g>
<g>
	<g>
		<path class="st0" d="M191,114.8C137.9,176.6,44.8,89.1,44.8,57.4S110.3,0,191,0s146.2,25.7,146.2,57.4S255.6,39.7,191,114.8z"/>
	</g>
	<g>
		<path class="st1" d="M191.9,96.1C154,142,84.7,79.5,84.3,56.3s46.9-42.9,105.9-44.1s107.2,16.6,107.6,39.7S237.9,40.2,191.9,96.1z
			"/>
	</g>
</g>
<path class="st2" d="M151,151.5c9.1,1.7,4.8,21.3-96.4,31.8C33,185.5,4.8,170,0.6,144.4s13.2-49.8,38.8-53.9S55,133.5,151,151.5z"/>
<path class="st2" d="M242.2,122.2c-9.1-1.7-4.8-21.3,96.4-31.8c21.6-2.2,49.8,13.2,53.9,38.8c4.2,25.6-13.2,49.8-38.8,53.9
	C328.1,187.4,338.2,140.2,242.2,122.2z"/>
</svg>
